<?xml version="1.0" encoding="UTF-8"?>
<svg id="Calque_2" data-name="Calque 2" xmlns="http://www.w3.org/2000/svg" viewBox="0 0 42.41 40">
  <defs>
    <style>
      .cls-1 {
        fill: #a4dcff;
      }

      .cls-2 {
        fill: #021f68;
      }
    </style>
  </defs>
  <g id="picto8">
    <ellipse class="cls-1" cx="21.2" cy="20" rx="21.2" ry="20"/>
    <path class="cls-2" d="M8.89,23.33c.39-.09.8-.08,1.18.05.51.18,2.21,1.62,2.99,2.06,5.43,3.03,11.79,3.01,17.16-.16,1.25-.74,3.05-2.86,4.46-1.58,1.93,1.76-1.7,3.77-2.99,4.51-6.91,4-15.39,3.64-21.92-.94-1.04-.73-2.52-1.64-1.88-3.16.1-.24.73-.72,1.01-.78Z"/>
    <path class="cls-2" d="M5.23,26.99c-.14-.12-.36-.6-.42-.8-.99-2.92,1.41-6.27,4.53-6.17.98.03,1.88,1.01.99,1.66-.38.27-1.47.1-2.21.4-.94.38-1.76,1.59-1.8,2.61-.02.62.47,1.37.31,1.92-.15.5-.96.76-1.39.39Z"/>
    <path class="cls-2" d="M33.16,20.07c1.97-.45,4.56,1.45,5.03,3.38.32,1.34.15,5.11-1.86,3.15.25-1.39.57-2.72-.52-3.87s-1.93-.62-2.98-.93c-.88-.26-.69-1.49.33-1.73Z"/>
  </g>
</svg>