<?xml version="1.0" encoding="UTF-8"?>
<svg id="Calque_2" data-name="Calque 2" xmlns="http://www.w3.org/2000/svg" viewBox="0 0 42.41 40">
  <defs>
    <style>
      .cls-1 {
        fill: #a4dcff;
      }

      .cls-2 {
        fill: #021f68;
      }
    </style>
  </defs>
  <g id="picto5">
    <ellipse class="cls-1" cx="21.2" cy="20" rx="21.2" ry="20"/>
    <path class="cls-2" d="M9.89,23.34c.04-.06,1.26-.25,1.39-.19.2.08,1.63,1.6,2.11,1.94,5.09,3.62,14.67,3.63,19.81.12,4.51-3.08,4.06-7.36-.51-10.07-5.55-3.29-15.39-3.15-20.33,1.24-.38.34-.93,1.12-1.21,1.32-.4.29-1.19.28-1.64.57.32-1.41,1.54-2.63,2.67-3.47,4.47-3.35,11.39-3.99,16.68-2.67,11.28,2.81,12.08,12.96.53,16.21-6.36,1.8-15.49.83-19.5-5.02Z"/>
    <path class="cls-2" d="M12.93,21.82c-3.14.06-5.98.97-7.71,3.74-.79.04-.44-.88-.31-1.33,1.02-3.43,4.57-5.49,8.02-5.57-.08-1.16.87-1.92,1.99-1.55.46.15,2.9,1.65,3.31,2,1.05.9.8,1.66-.2,2.43-.39.3-3.09,1.96-3.42,2.02-1.04.2-1.79-.76-1.68-1.75Z"/>
  </g>
</svg>